<svg width="24" height="24" viewBox="0 0 24 24" fill="none" xmlns="http://www.w3.org/2000/svg">
<path d="M9.16055 10.87C9.06055 10.86 8.94055 10.86 8.83055 10.87C6.45055 10.79 4.56055 8.84 4.56055 6.44C4.56055 3.99 6.54055 2 9.00055 2C11.4505 2 13.4405 3.99 13.4405 6.44C13.4305 8.84 11.5405 10.79 9.16055 10.87Z" stroke="black" stroke-opacity="0.87" stroke-width="1.5" stroke-linecap="round" stroke-linejoin="round"/>
<path d="M16.4093 4C18.3493 4 19.9093 5.57 19.9093 7.5C19.9093 9.39 18.4093 10.93 16.5393 11C16.4593 10.99 16.3693 10.99 16.2793 11" stroke="black" stroke-opacity="0.87" stroke-width="1.5" stroke-linecap="round" stroke-linejoin="round"/>
<path d="M19.4907 18H18.0007M18.0007 18H16.5107M18.0007 18V16.54M18.0007 18V19.53M15.0493 15.2959C14.6693 15.7086 14.3783 16.1981 14.2007 16.74C14.0707 17.14 14.0007 17.56 14.0007 18C14.0007 18.75 14.2107 19.46 14.5807 20.06C14.5896 20.0751 14.5986 20.0902 14.6078 20.1052M15.0493 15.2959C15.076 15.2669 15.1031 15.2383 15.1307 15.21C15.8607 14.46 16.8807 14 18.0007 14C19.1807 14 20.2507 14.51 20.9707 15.33C21.6107 16.04 22.0007 16.98 22.0007 18C22.0007 18.32 21.9607 18.63 21.8807 18.93C21.7907 19.33 21.6307 19.72 21.4207 20.06C20.9407 20.87 20.1707 21.5 19.2507 21.79C18.8607 21.93 18.4407 22 18.0007 22C16.9707 22 16.0407 21.61 15.3407 20.97C15.0541 20.7215 14.8039 20.4275 14.6078 20.1052M15.0493 15.2959C14.8044 15.034 14.5116 14.7868 14.1707 14.56C11.4307 12.73 6.9207 12.73 4.1607 14.56C1.7407 16.18 1.7407 18.82 4.1607 20.43C6.9107 22.27 11.4207 22.27 14.1707 20.43C14.3264 20.3258 14.4721 20.2173 14.6078 20.1052" stroke="black" stroke-opacity="0.87" stroke-width="1.5" stroke-linecap="round" stroke-linejoin="round"/>
</svg>
