<svg width="16" height="12" viewBox="0 0 16 12" fill="none" xmlns="http://www.w3.org/2000/svg">
<path d="M1.25 0.75V11.25M1.25 9H14.75M14.75 11.25V6.9C14.75 6.05992 14.75 5.63988 14.5865 5.31901C14.4427 5.03677 14.2132 4.8073 13.931 4.66349C13.6101 4.5 13.1901 4.5 12.35 4.5H7.25V8.79545M4.25 6H4.2575M5 6C5 6.41421 4.66421 6.75 4.25 6.75C3.83579 6.75 3.5 6.41421 3.5 6C3.5 5.58579 3.83579 5.25 4.25 5.25C4.66421 5.25 5 5.58579 5 6Z" stroke="black" stroke-opacity="0.87" stroke-width="1.5" stroke-linecap="round" stroke-linejoin="round"/>
</svg>
