<svg width="19" height="19" viewBox="0 0 19 19" fill="none" xmlns="http://www.w3.org/2000/svg">
<path d="M5.5 10L8 12.5L13.5 6.5M4.7 17.5H14.3C15.4201 17.5 15.9802 17.5 16.408 17.282C16.7843 17.0903 17.0903 16.7843 17.282 16.408C17.5 15.9802 17.5 15.4201 17.5 14.3V4.7C17.5 3.5799 17.5 3.01984 17.282 2.59202C17.0903 2.21569 16.7843 1.90973 16.408 1.71799C15.9802 1.5 15.4201 1.5 14.3 1.5H4.7C3.5799 1.5 3.01984 1.5 2.59202 1.71799C2.21569 1.90973 1.90973 2.21569 1.71799 2.59202C1.5 3.01984 1.5 3.57989 1.5 4.7V14.3C1.5 15.4201 1.5 15.9802 1.71799 16.408C1.90973 16.7843 2.21569 17.0903 2.59202 17.282C3.01984 17.5 3.57989 17.5 4.7 17.5Z" stroke="black" stroke-opacity="0.87" stroke-width="1.5" stroke-linecap="round" stroke-linejoin="round"/>
</svg>
