<svg width="16" height="16" viewBox="0 0 16 16" fill="none" xmlns="http://www.w3.org/2000/svg">
<path d="M10.6248 3.12551L12.7461 5.24683M8.75 14.75H14.75M1.25 14.7503L1.28559 14.5012C1.41152 13.6197 1.47449 13.1789 1.61772 12.7674C1.74481 12.4023 1.91843 12.055 2.13429 11.7342C2.37756 11.3728 2.69239 11.0579 3.32206 10.4283L12.0581 1.69227C12.6438 1.10648 13.5936 1.10648 14.1794 1.69227C14.7652 2.27806 14.7652 3.2278 14.1794 3.81359L5.28308 12.7099C4.71185 13.2811 4.42623 13.5667 4.1009 13.7939C3.81213 13.9955 3.50069 14.1625 3.17298 14.2915C2.80378 14.4368 2.40782 14.5167 1.61595 14.6765L1.25 14.7503Z" stroke="black" stroke-opacity="0.87" stroke-width="1.5" stroke-linecap="round" stroke-linejoin="round"/>
</svg>
