<svg width="25" height="24" viewBox="0 0 25 24" fill="none" xmlns="http://www.w3.org/2000/svg">
<path d="M22.5 12C22.5 17.52 18.02 22 12.5 22C6.98 22 3.61 16.44 3.61 16.44M3.61 16.44H8.13M3.61 16.44V21.44M2.5 12C2.5 6.48 6.94 2 12.5 2C19.17 2 22.5 7.56 22.5 7.56M22.5 7.56V2.56M22.5 7.56H18.06" stroke="black" stroke-opacity="0.87" stroke-width="1.5" stroke-linecap="round" stroke-linejoin="round"/>
<path d="M9.5 14C9.5 15.1073 10.3906 16 11.497 16H13.7549C14.7174 16 15.5 15.2189 15.5 14.2575C15.5 13.2103 15.0232 12.8412 14.3126 12.6009L10.6874 11.3991C9.97676 11.1588 9.5 10.7897 9.5 9.74249C9.5 8.78112 10.2826 8 11.2451 8H13.503C14.6094 8 15.5 8.8927 15.5 10" stroke="black" stroke-opacity="0.87" stroke-width="1.5" stroke-linecap="round" stroke-linejoin="round"/>
<path d="M12.5 7V17" stroke="black" stroke-opacity="0.87" stroke-width="1.5" stroke-linecap="round" stroke-linejoin="round"/>
</svg>
