<svg width="113" height="40" viewBox="0 0 113 40" fill="none" xmlns="http://www.w3.org/2000/svg">
<g clip-path="url(#clip0_2944_1046)">
<path fill-rule="evenodd" clip-rule="evenodd" d="M100.531 29.3762V23.5181H104.304C104.668 23.5181 105.397 23.6967 105.397 24.4117V26.3974C105.397 26.6623 105.258 27.1918 104.701 27.1918H104.652H103.907L105.893 29.3762H104.304L102.368 27.1918H101.524V29.3762H100.531ZM101.524 24.6102V26.1988H103.808C104.007 26.1988 104.305 25.901 104.305 25.7024V25.1066C104.305 24.9577 104.265 24.6102 103.907 24.6102H101.524Z" fill="#F1141E"/>
<path d="M93.9785 24.7095V23.5181H99.2407V24.7095H97.1557V29.3762H95.9639V24.7095H93.9785Z" fill="#F1141E"/>
<path fill-rule="evenodd" clip-rule="evenodd" d="M56.8438 29.3762H57.9856L58.482 28.1847H61.2622L61.7586 29.3762H63.0991L60.4679 23.5181H59.3757L56.8438 29.3762ZM60.6888 26.9932L59.8719 24.9081L59.0551 26.9932H60.6888Z" fill="#F1141E"/>
<path d="M55.8012 25.5038L54.709 25.7521H54.6594V24.7095H51.8793V28.284H54.709V26.9932L55.7516 27.4896V28.5818C55.7516 29.1776 55.222 29.3596 54.9573 29.3762H51.5814C50.946 29.3762 50.7871 28.979 50.7871 28.7804V24.4117C50.7871 23.6173 51.4324 23.5181 51.8296 23.5181H54.6098C55.9601 23.5975 55.8012 24.6103 55.8012 25.5038Z" fill="#F1141E"/>
<path d="M78.7373 25.5038L77.6446 25.7521H77.595V24.7095H74.8147V28.284H77.6446V26.9932L78.6871 27.4896V28.5818C78.6871 29.1776 78.1576 29.3596 77.8928 29.3762H74.5169C73.8814 29.3762 73.7227 28.979 73.7227 28.7804V24.4117C73.7227 23.6173 74.3684 23.5181 74.7652 23.5181H77.5455C78.896 23.5975 78.7373 24.6103 78.7373 25.5038Z" fill="#F1141E"/>
<path d="M33.5098 29.3762V23.5181H38.1764V24.5606H34.5523V25.8017H36.687V26.8939H34.5523V28.284H38.2757V29.3762H33.5098Z" fill="#F1141E"/>
<path d="M80.7725 29.3762V23.5181H85.4391V24.5606H81.815V25.8017H83.9496V26.8939H81.815V28.284H85.5382V29.3762H80.7725Z" fill="#F1141E"/>
<path d="M107.481 29.3762V23.5181H112.148V24.5606H108.524V25.8017H110.659V26.8939H108.524V28.284H112.248V29.3762H107.481Z" fill="#F1141E"/>
<path d="M88.3687 29.3762H87.3262V23.5181H88.1205L91.6951 27.2911L91.7446 23.5181H92.7871V29.3762H91.8938L88.3687 25.6528V29.3762Z" fill="#F1141E"/>
<path fill-rule="evenodd" clip-rule="evenodd" d="M40.0635 23.5181V29.3762H43.7372C45.6237 29.2272 46.9641 24.7591 43.7372 23.5181H40.0635ZM41.2549 24.7095V28.284H42.5954C44.4322 28.284 45.4748 25.2059 42.5954 24.7095H41.2549Z" fill="#F1141E"/>
<path d="M4.71628 18.9007L0 19.6454L5.26238 20.4397L9.18432 15.5248L13.0566 26.3475L14.9432 8.7235L19.2126 39.9999L23.0353 18.8511L24.7729 21.234L112.148 20.1418L25.7161 18.6029L22.1914 15.0284L19.4112 27.9858L15.1914 0.929199L12.1134 21.6312L9.48222 13.3405L4.71628 18.9007Z" fill="#F1141E"/>
<path d="M27.3545 2.46841V0.0854492H34.9005V2.46841H32.8651V6.73788H39.0707V2.46841H37.0849V0.0854492H44.5813V2.46841H42.7445V13.6882H44.5813V16.0712H37.0849V13.6882H39.0707V9.22017H32.8651V13.6882H34.9005V16.0712H27.3545V13.6882H29.241V2.46841H27.3545Z" fill="#F1141E"/>
<path fill-rule="evenodd" clip-rule="evenodd" d="M45.0283 13.6882V16.0712H51.7801V13.6882H49.8936L50.7872 11.4046H56.4964L57.3403 13.6882H55.4538V16.0712H62.702V13.6882H61.3616L55.9503 0.0854492H51.7801L46.4184 13.6882H45.0283ZM55.5516 8.94709L53.6169 3.65988L51.6822 8.94709H55.5516Z" fill="#F1141E"/>
<path fill-rule="evenodd" clip-rule="evenodd" d="M74.1201 13.6882V16.0712H80.8719V13.6882H78.9855L79.8788 11.4046H85.5881L86.4325 13.6882H84.5455V16.0712H91.7938V13.6882H90.4535L85.042 0.0854492H80.8719L75.5106 13.6882H74.1201ZM84.6433 8.94709L82.7087 3.65988L80.7741 8.94709H84.6433Z" fill="#F1141E"/>
<path d="M60.1201 2.46841V0.0854492H67.17V2.46841H65.5312L68.0633 6.63858L70.5954 2.46841H69.1554V0.0854492H75.6093V2.46841H74.5173L69.6519 9.91515V13.7378H71.9357V16.0712H63.7941V13.7378H65.9782V9.91515L61.2123 2.46841H60.1201Z" fill="#F1141E"/>
<path d="M90.752 5.84428V0.0854492H104.851V5.84428H101.624V2.5677H99.6383V13.6882H101.822V16.0215H93.6808V13.6882H95.9646V2.5677H93.8796V5.84428H90.752Z" fill="#F1141E"/>
<path d="M25.3691 29.3762V23.5181H26.362L28.3975 26.9932L30.4329 23.5181H31.3265V29.3762H30.3336V25.5535L28.4968 28.6315H28.1989L26.362 25.6528V29.3762H25.3691Z" fill="#F1141E"/>
<path d="M48.602 23.5181H47.5098V29.3762H48.602V23.5181Z" fill="#F1141E"/>
<path fill-rule="evenodd" clip-rule="evenodd" d="M65.4823 23.5181H64.3896V28.3833V29.3762H65.4823H68.9573V28.3833H65.4823V23.5181Z" fill="#F1141E"/>
</g>
<defs>
<clipPath id="clip0_2944_1046">
<rect width="112.381" height="40" fill="white"/>
</clipPath>
</defs>
</svg>
