<svg width="18" height="18" viewBox="0 0 18 18" fill="none" xmlns="http://www.w3.org/2000/svg">
<path d="M7.5 14.25H4.65C3.80992 14.25 3.38988 14.25 3.06901 14.0865C2.78677 13.9427 2.5573 13.7132 2.41349 13.431C2.25 13.1101 2.25 12.6901 2.25 11.85V6.15C2.25 5.30992 2.25 4.88988 2.41349 4.56901C2.5573 4.28677 2.78677 4.0573 3.06901 3.91349C3.38988 3.75 3.80992 3.75 4.65 3.75H13.35C14.1901 3.75 14.6101 3.75 14.931 3.91349C15.2132 4.0573 15.4427 4.28677 15.5865 4.56901C15.75 4.88988 15.75 5.30992 15.75 6.15V6.375M6.75 7.125V6.375M6.75 7.125H8.25007M6.75 7.125C5.9121 7.12498 5.25183 7.21962 5.25007 8.12439C5.24876 8.79962 5.25007 8.99997 6.75007 8.99997C8.25007 8.99997 8.25007 9.15413 8.25007 9.875C8.25007 10.4167 8.25 10.875 6.75 10.875M6.75 11.625V10.875M6.75 10.875L5.25007 10.875M10.5 7.5H12.75M10.5 15L12.0187 14.6963C12.1511 14.6698 12.2174 14.6565 12.2791 14.6323C12.3339 14.6108 12.386 14.5829 12.4343 14.5493C12.4887 14.5113 12.5364 14.4636 12.6319 14.3681L15.75 11.25C16.1642 10.8358 16.1642 10.1642 15.75 9.75C15.3358 9.33579 14.6642 9.33579 14.25 9.75L11.1319 12.8681C11.0364 12.9636 10.9887 13.0113 10.9507 13.0657C10.9171 13.114 10.8892 13.1661 10.8677 13.2209C10.8435 13.2826 10.8302 13.3489 10.8037 13.4813L10.5 15Z" stroke="black" stroke-opacity="0.87" stroke-width="1.5" stroke-linecap="round" stroke-linejoin="round"/>
</svg>
