<svg width="21" height="20" viewBox="0 0 21 20" fill="none" xmlns="http://www.w3.org/2000/svg">
<path d="M19.5 8H13.1C12.5399 8 12.2599 8 12.046 7.89101C11.8578 7.79513 11.7049 7.64215 11.609 7.45399C11.5 7.24008 11.5 6.96005 11.5 6.4V3M8.5 3H16.3C17.4201 3 17.9802 3 18.408 3.21799C18.7843 3.40973 19.0903 3.71569 19.282 4.09202C19.5 4.51984 19.5 5.07989 19.5 6.2V15.8C19.5 16.9201 19.5 17.4802 19.282 17.908C19.0903 18.2843 18.7843 18.5903 18.408 18.782C17.9802 19 17.4201 19 16.3 19H4.7C3.57989 19 3.01984 19 2.59202 18.782C2.21569 18.5903 1.90973 18.2843 1.71799 17.908C1.5 17.4802 1.5 16.9201 1.5 15.8V6.2C1.5 5.07989 1.5 4.51984 1.71799 4.09202C1.90973 3.71569 2.21569 3.40973 2.59202 3.21799C2.99359 3.01338 3.51165 3.00082 4.5 3.00005M8.5 3V2.6C8.5 2.03995 8.5 1.75992 8.39101 1.54601C8.29513 1.35785 8.14215 1.20487 7.95399 1.10899C7.74008 1 7.46005 1 6.9 1H6.1C5.53995 1 5.25992 1 5.04601 1.10899C4.85785 1.20487 4.70487 1.35785 4.60899 1.54601C4.5 1.75992 4.5 2.03995 4.5 2.6V3.00005M8.5 3V13.4C8.5 13.9601 8.5 14.2401 8.39101 14.454C8.29513 14.6422 8.14215 14.7951 7.95399 14.891C7.74008 15 7.46005 15 6.9 15H6.1C5.53995 15 5.25992 15 5.04601 14.891C4.85785 14.7951 4.70487 14.6422 4.60899 14.454C4.5 14.2401 4.5 13.9601 4.5 13.4V3.00005M12.5 12H12.51V11.99H12.5V12ZM12.5 15H12.51V15.01H12.5V15ZM15.5 15H15.51V15.01H15.5V15ZM15.5 12H15.51V12.01H15.5V12Z" stroke="black" stroke-opacity="0.87" stroke-width="1.5" stroke-linecap="round" stroke-linejoin="round"/>
</svg>
