<svg width="20" height="22" viewBox="0 0 20 22" fill="none" xmlns="http://www.w3.org/2000/svg">
<path d="M1.99923 20.5H17.9992M9.99923 20.5V6.85897M9.99923 6.85897C11.1038 6.85897 11.9992 5.9865 11.9992 4.91026M9.99923 6.85897C8.89466 6.85897 7.99923 5.9865 7.99923 4.91026C7.99923 3.83401 8.89466 2.96154 9.99923 2.96154C11.1038 2.96154 11.9992 3.83401 11.9992 4.91026M11.9992 4.91026H17.9992M6.98385 1.5L3.99923 5.88462L1.06939 3.9359M3.99923 16.6026C5.51177 16.6026 6.76287 15.7826 6.96934 14.4115C6.98242 14.3246 6.98897 14.2812 6.98385 14.1848C6.98031 14.1183 6.95717 13.9967 6.93599 13.9333C6.90531 13.8416 6.86812 13.7772 6.79375 13.6483L3.99923 8.80769L1.2047 13.6483C1.13575 13.7678 1.10128 13.8275 1.06939 13.9312C1.04977 13.9951 1.02706 14.1482 1.02735 14.2148C1.02781 14.3231 1.03453 14.3517 1.04799 14.4089C1.30295 15.4918 2.5273 16.6026 3.99923 16.6026ZM15.9992 16.6026C17.5118 16.6026 18.7629 15.7826 18.9693 14.4115C18.9824 14.3246 18.989 14.2812 18.9838 14.1848C18.9803 14.1183 18.9572 13.9967 18.936 13.9333C18.9053 13.8416 18.8681 13.7772 18.7937 13.6483L15.9992 8.80769L13.2047 13.6483C13.1358 13.7678 13.1013 13.8275 13.0694 13.9312C13.0498 13.9951 13.0271 14.1482 13.0273 14.2148C13.0278 14.3231 13.0345 14.3517 13.048 14.4089C13.303 15.4918 14.5273 16.6026 15.9992 16.6026Z" stroke="black" stroke-opacity="0.87" stroke-width="1.5" stroke-linecap="round" stroke-linejoin="round"/>
</svg>
