<svg width="20" height="20" viewBox="0 0 20 20" fill="none" xmlns="http://www.w3.org/2000/svg">
<path d="M2.00004 18.9999H10V5.99991M10 5.99991C8.89547 5.99991 8.00004 5.10448 8.00004 3.99991C8.00004 3.75996 8.04229 3.52988 8.11977 3.3167M10 5.99991C11.1046 5.99991 12 5.10448 12 3.99991C12 2.89534 11.1046 1.99991 10 1.99991C9.13542 1.99991 8.39894 2.54856 8.11977 3.3167M11.876 4.68387L17.5142 6.73599M2.47912 1.26367L8.11977 3.3167M16 18.9999C14.4875 18.9999 13.2364 18.1583 13.0299 16.7512C13.0168 16.662 13.0103 16.6174 13.0154 16.5185C13.019 16.4502 13.0421 16.3255 13.0633 16.2604C13.094 16.1663 13.1311 16.1002 13.2055 15.9679L16 10.9999L18.7946 15.9679C18.8635 16.0905 18.898 16.1518 18.9299 16.2583C18.9495 16.3238 18.9722 16.481 18.9719 16.5494C18.9715 16.6605 18.9647 16.6898 18.9513 16.7485C18.6963 17.8599 17.472 18.9999 16 18.9999ZM4.00004 14.9999C2.4875 14.9999 1.2364 14.1583 1.02993 12.7512C1.01684 12.662 1.0103 12.6174 1.01542 12.5185C1.01895 12.4502 1.04209 12.3255 1.06327 12.2604C1.09395 12.1663 1.13114 12.1002 1.20552 11.9679L4.00004 6.99991L6.79456 11.9679C6.86351 12.0905 6.89799 12.1518 6.92988 12.2583C6.9495 12.3238 6.9722 12.481 6.97192 12.5494C6.97146 12.6605 6.96473 12.6898 6.95127 12.7485C6.69631 13.8599 5.47197 14.9999 4.00004 14.9999Z" stroke="black" stroke-opacity="0.87" stroke-width="1.5" stroke-linecap="round" stroke-linejoin="round"/>
</svg>
