<svg width="21" height="18" viewBox="0 0 21 18" fill="none" xmlns="http://www.w3.org/2000/svg">
<path d="M8 15.5H4.2C3.0799 15.5 2.51984 15.5 2.09202 15.282C1.71569 15.0903 1.40973 14.7843 1.21799 14.408C1 13.9802 1 13.4201 1 12.3V4.7C1 3.57989 1 3.01984 1.21799 2.59202C1.40973 2.21569 1.71569 1.90973 2.09202 1.71799C2.51984 1.5 3.0799 1.5 4.2 1.5H15.8C16.9201 1.5 17.4802 1.5 17.908 1.71799C18.2843 1.90973 18.5903 2.21569 18.782 2.59202C19 3.01984 19 3.5799 19 4.7V5M7 6V5M7 6H9.00009M7 6C5.88279 5.99998 5.00244 6.12616 5.0001 7.33252C4.99834 8.23282 5.00009 8.49995 7.00009 8.49995C9.00009 8.49995 9.00009 8.70551 9.00009 9.66667C9.00009 10.389 9 11 7 11M7 12V11M7 11L5.0001 11M12 6.5H15M12 16.5L14.025 16.095C14.2015 16.0597 14.2898 16.042 14.3721 16.0097C14.4452 15.9811 14.5147 15.9439 14.579 15.899C14.6516 15.8484 14.7152 15.7848 14.8426 15.6574L19 11.5C19.5523 10.9477 19.5523 10.0523 19 9.5C18.4477 8.94772 17.5523 8.94772 17 9.5L12.8426 13.6574C12.7152 13.7848 12.6516 13.8484 12.601 13.921C12.5561 13.9853 12.5189 14.0548 12.4903 14.1279C12.458 14.2102 12.4403 14.2985 12.405 14.475L12 16.5Z" stroke="black" stroke-opacity="0.87" stroke-width="1.5" stroke-linecap="round" stroke-linejoin="round"/>
</svg>
