<svg width="18" height="18" viewBox="0 0 18 18" fill="none" xmlns="http://www.w3.org/2000/svg">
<path d="M6 5.25V4.65C6 3.80992 6 3.38988 6.16349 3.06901C6.3073 2.78677 6.53677 2.5573 6.81901 2.41349C7.13988 2.25 7.55992 2.25 8.4 2.25H9.6C10.4401 2.25 10.8601 2.25 11.181 2.41349C11.4632 2.5573 11.6927 2.78677 11.8365 3.06901C12 3.38988 12 3.80992 12 4.65V5.25M5.25 15.75V5.25127M12.75 15.75V5.25M5.25 5.25127C5.4328 5.25 5.63197 5.25 5.85 5.25H12M5.25 5.25127C4.3763 5.25734 3.87655 5.29243 3.47852 5.49524C3.05516 5.71095 2.71095 6.05516 2.49524 6.47852C2.25 6.95982 2.25 7.58988 2.25 8.85V12.15C2.25 13.4101 2.25 14.0402 2.49524 14.5215C2.71095 14.9448 3.05516 15.289 3.47852 15.5048C3.95982 15.75 4.58988 15.75 5.85 15.75H12.15C13.4101 15.75 14.0402 15.75 14.5215 15.5048C14.9448 15.289 15.289 14.9448 15.5048 14.5215C15.75 14.0402 15.75 13.4101 15.75 12.15V8.85C15.75 7.58988 15.75 6.95982 15.5048 6.47852C15.289 6.05516 14.9448 5.71095 14.5215 5.49524C14.0402 5.25 13.4101 5.25 12.15 5.25H12.75M12.75 5.25H12" stroke="black" stroke-opacity="0.87" stroke-width="1.5" stroke-linecap="round" stroke-linejoin="round"/>
</svg>
