<svg width="22" height="18" viewBox="0 0 22 18" fill="none" xmlns="http://www.w3.org/2000/svg">
<path d="M17.5 15C17.5 16.1046 16.6046 17 15.5 17C14.3954 17 13.5 16.1046 13.5 15M17.5 15C17.5 13.8954 16.6046 13 15.5 13C14.3954 13 13.5 13.8954 13.5 15M17.5 15H20.5M13.5 15H12.5M7.5 15C7.5 16.1046 6.60457 17 5.5 17C4.39543 17 3.5 16.1046 3.5 15M7.5 15C7.5 13.8954 6.60457 13 5.5 13C4.39543 13 3.5 13.8954 3.5 15M7.5 15H12.5M3.5 15C2.39543 15 1.5 14.1046 1.5 13V4.2C1.5 3.0799 1.5 2.51984 1.71799 2.09202C1.90973 1.71569 2.21569 1.40973 2.59202 1.21799C3.01984 1 3.5799 1 4.7 1H9.3C10.4201 1 10.9802 1 11.408 1.21799C11.7843 1.40973 12.0903 1.71569 12.282 2.09202C12.5 2.51984 12.5 3.0799 12.5 4.2V15M12.5 15V5H16.5L19.5 9M19.5 9V15M19.5 9H12.5" stroke="black" stroke-opacity="0.87" stroke-width="1.5" stroke-linecap="round" stroke-linejoin="round"/>
</svg>
