<svg width="18" height="18" viewBox="0 0 18 18" fill="none" xmlns="http://www.w3.org/2000/svg">
<path d="M14.25 13.5029V12.75C14.25 11.9216 13.5784 11.25 12.75 11.25C11.9216 11.25 11.25 11.9216 11.25 12.75V13.5029M7.5 15.75H3C3 12.8505 5.35051 10.5 8.25 10.5C8.50464 10.5 8.75505 10.5181 9 10.5532M11.625 15.75H13.875C14.2245 15.75 14.3992 15.75 14.537 15.6929C14.7208 15.6168 14.8668 15.4708 14.9429 15.287C15 15.1492 15 14.9745 15 14.625C15 14.2755 15 14.1008 14.9429 13.963C14.8668 13.7792 14.7208 13.6332 14.537 13.5571C14.3992 13.5 14.2245 13.5 13.875 13.5H11.625C11.2755 13.5 11.1008 13.5 10.963 13.5571C10.7792 13.6332 10.6332 13.7792 10.5571 13.963C10.5 14.1008 10.5 14.2755 10.5 14.625C10.5 14.9745 10.5 15.1492 10.5571 15.287C10.6332 15.4708 10.7792 15.6168 10.963 15.6929C11.1008 15.75 11.2755 15.75 11.625 15.75ZM11.25 5.25C11.25 6.90685 9.90685 8.25 8.25 8.25C6.59315 8.25 5.25 6.90685 5.25 5.25C5.25 3.59315 6.59315 2.25 8.25 2.25C9.90685 2.25 11.25 3.59315 11.25 5.25Z" stroke="black" stroke-opacity="0.87" stroke-width="1.5" stroke-linecap="round" stroke-linejoin="round"/>
</svg>
