<svg width="16" height="18" viewBox="0 0 16 18" fill="none" xmlns="http://www.w3.org/2000/svg">
<path d="M5.77249 16.2676L7.51999 14.7976C7.78249 14.5726 8.21749 14.5726 8.47999 14.7976L10.2275 16.2676C10.6325 16.4701 11.1275 16.2676 11.2775 15.8326L11.6075 14.8351C11.69 14.5951 11.6075 14.2426 11.4275 14.0626L9.72499 12.3526C9.59749 12.2326 9.49999 11.9926 9.49999 11.8201V9.68257C9.49999 9.36757 9.73249 9.21757 10.025 9.33757L13.7075 10.9276C14.285 11.1751 14.7575 10.8676 14.7575 10.2376V9.27007C14.7575 8.76757 14.3825 8.19007 13.9175 7.99507L9.72499 6.18757C9.60499 6.13507 9.49999 5.97757 9.49999 5.84257V3.59257C9.49999 2.88757 8.98249 2.05507 8.35249 1.73257C8.12749 1.62007 7.86499 1.62007 7.63999 1.73257C7.00999 2.05507 6.49249 2.89507 6.49249 3.60007V5.85007C6.49249 5.98507 6.38749 6.14257 6.26749 6.19507L2.08249 8.00257C1.61749 8.19007 1.24249 8.76757 1.24249 9.27007V10.2376C1.24249 10.8676 1.71499 11.1751 2.29249 10.9276L5.97499 9.33757C6.25999 9.21007 6.49999 9.36757 6.49999 9.68257V11.8201C6.49999 11.9926 6.40249 12.2326 6.28249 12.3526L4.57999 14.0626C4.39999 14.2426 4.31749 14.5876 4.39999 14.8351L4.72999 15.8326C4.86499 16.2676 5.35999 16.4776 5.77249 16.2676Z" stroke="black" stroke-opacity="0.87" stroke-width="1.5" stroke-linecap="round" stroke-linejoin="round"/>
</svg>
